<svg width="512" height="512" viewBox="0 0 512 512" xmlns="http://www.w3.org/2000/svg" role="img" aria-labelledby="title desc">
  <title>Yunsol Maskable Icon</title>
  <desc>Mask-friendly centered location pin on gradient background, no text.</desc>
  <defs>
    <linearGradient id="bg" x1="0" y1="0" x2="1" y2="1">
      <stop offset="0" stop-color="#6366F1"/>
      <stop offset="1" stop-color="#FB8B78"/>
    </linearGradient>
    <filter id="softShadow" x="-20%" y="-20%" width="140%" height="140%">
      <feDropShadow dx="0" dy="8" stdDeviation="12" flood-color="#000" flood-opacity="0.18"/>
    </filter>
  </defs>

  <!-- Full-bleed background for maskable (no outer radius to avoid clipping by masks) -->
  <rect width="512" height="512" fill="url(#bg)"/>

  <!-- Safe area guide (approx 80% center) - not rendered
  <rect x="64" y="64" width="384" height="384" fill="none" stroke="white" opacity="0.1"/>
  -->

  <!-- Centered pin scaled to fit safely inside maskable area -->
  <g transform="translate(0,8)" filter="url(#softShadow)">
    <path d="M256 120 C 200 120 160 160 160 216 C 160 284 220 318 246 372 C 249 378 252 384 256 384 C 260 384 263 378 266 372 C 292 318 352 284 352 216 C 352 160 312 120 256 120 Z" fill="#FFFFFF" fill-opacity="0.96"/>
    <path d="M256 214 c -12 -16 -40 -10 -40 10 c 0 16 16 28 40 46 c 24 -18 40 -30 40 -46 c 0 -20 -28 -26 -40 -10 z" fill="#FB8B78"/>
  </g>
</svg>
